# xmcd
#
# Track frame offsets: 
#        150
#        17318
#        31942
#        45770
#        62551
#        76849
#        95062
#        107243
#        123188
#        137834
#
# Disc length: 2079 seconds
#
# Revision: 0
# Processed by: cddbd v1.5.2PL0 Copyright (c) Steve Scherf et al.
# Submitted via: ExactAudioCopy v0.99pb5
#
DISCID=6f081d0a
DTITLE=Pure Prairie League - Just Fly
DYEAR=2007
DGENRE=Country
TTITLE0=01 Place In The Middle
TTITLE1=02 Slim Pickin's
TTITLE2=03 Love Will Grow
TTITLE3=04 You Don't Have To Be Alone
TTITLE4=05 Love Is Falling
TTITLE5=06 Just Fly
TTITLE6=07 Lifetime
TTITLE7=08 Working In The Coal Mine
TTITLE8=09 My Young Girl
TTITLE9=10 Bad Dream
EXTD=
EXTT0=
EXTT1=
EXTT2=
EXTT3=
EXTT4=
EXTT5=
EXTT6=
EXTT7=
EXTT8=
EXTT9=
PLAYORDER=
